<?xml version="1.0" standalone="no"?>
<!DOCTYPE svg PUBLIC "-//W3C//DTD SVG 20010904//EN"
 "http://www.w3.org/TR/2001/REC-SVG-20010904/DTD/svg10.dtd">
<svg version="1.0" xmlns="http://www.w3.org/2000/svg"
 width="2150.000000pt" height="2150.000000pt" viewBox="0 0 2150.000000 2150.000000"
 preserveAspectRatio="xMidYMid meet">
<metadata>
Created by potrace 1.11, written by Peter Selinger 2001-2013
</metadata>
<g transform="translate(0.000000,2150.000000) scale(0.100000,-0.100000)"
fill="#000000" stroke="none">
<path d="M7281 21478 c-5 -13 -1422 -4174 -3151 -9248 -1728 -5074 -3365
-9877 -3636 -10675 -407 -1195 -494 -1458 -494 -1502 l0 -53 7113 0 7112 0
3638 10688 c3296 9687 3637 10694 3637 10750 l0 62 -7105 0 -7105 0 -9 -22z
m1912 -6447 c60 -30 128 -95 159 -152 l23 -44 0 -3975 0 -3975 -23 -44 c-31
-57 -99 -122 -159 -152 l-48 -24 -549 -3 c-622 -3 -616 -4 -708 71 -37 30 -63
63 -88 112 l-35 68 -3 2993 c-1 1647 -5 2994 -8 2994 -3 0 -392 -303 -865
-672 -473 -370 -877 -682 -897 -693 -29 -16 -56 -20 -127 -20 -78 0 -97 4
-140 27 -70 37 -107 78 -428 482 -315 395 -327 414 -327 536 0 58 5 78 33 131
32 62 43 72 433 379 220 173 823 648 1339 1055 1069 842 1143 896 1262 924 21
5 279 9 573 8 l535 -2 48 -24z m7080 0 c60 -30 128 -95 159 -152 l23 -44 3
-483 c3 -592 15 -530 -173 -957 -51 -115 -703 -1618 -1450 -3340 -746 -1721
-1370 -3156 -1387 -3188 -39 -72 -112 -147 -175 -178 l-48 -24 -580 0 c-573 0
-581 0 -627 22 -151 70 -229 238 -180 388 11 33 648 1505 1415 3270 l1396
3210 -1922 5 -1922 5 -56 28 c-66 32 -132 99 -162 165 -21 46 -22 59 -25 531
-2 412 0 491 13 537 27 95 111 182 207 215 51 18 158 18 2748 16 l2695 -2 48
-24z"/>
</g>
</svg>
